<!--?xml version="1.0" standalone="no"?-->
              <svg id="sw-js-blob-svg" viewBox="0 0 100 100" xmlns="http://www.w3.org/2000/svg" version="1.1">
                    <defs> 
                        <linearGradient id="sw-gradient" x1="0" x2="1" y1="1" y2="0">
                            <stop id="stop1" stop-color="rgba(248, 117, 55, 1)" offset="0%"></stop>
                            <stop id="stop2" stop-color="rgba(251, 168, 31, 1)" offset="100%"></stop>
                        </linearGradient>
                    </defs>
                <path fill="url(#sw-gradient)" d="M21.4,-37.4C27.7,-33.5,32.6,-27.6,35.8,-21C38.9,-14.4,40.4,-7.2,38.7,-1C37.1,5.3,32.2,10.5,28.4,16C24.6,21.5,21.8,27.2,17.2,31.6C12.7,36,6.3,39.2,0.1,39C-6.1,38.8,-12.2,35.3,-18.4,31.8C-24.5,28.3,-30.7,24.8,-34.8,19.5C-38.9,14.2,-40.8,7.1,-40.2,0.3C-39.7,-6.5,-36.7,-13,-33.4,-19.5C-30,-26,-26.2,-32.4,-20.6,-36.7C-15,-40.9,-7.5,-43,0.1,-43.1C7.6,-43.2,15.2,-41.3,21.4,-37.4Z" width="100%" height="100%" transform="translate(50 50)" stroke-width="0" style="transition: all 0.3s ease 0s;" stroke="url(#sw-gradient)"></path>
              </svg>