<!--?xml version="1.0" standalone="no"?-->
              <svg id="sw-js-blob-svg" viewBox="0 0 100 100" xmlns="http://www.w3.org/2000/svg" version="1.1">
                    <defs> 
                        <linearGradient id="sw-gradient" x1="0" x2="1" y1="1" y2="0">
                            <stop id="stop1" stop-color="rgba(248, 117, 55, 1)" offset="0%"></stop>
                            <stop id="stop2" stop-color="rgba(251, 168, 31, 1)" offset="100%"></stop>
                        </linearGradient>
                    </defs>
                <path fill="url(#sw-gradient)" d="M16,-29.7C20.2,-25.2,22.9,-20,24.8,-14.9C26.7,-9.8,27.7,-4.9,29.7,1.1C31.6,7.2,34.4,14.3,32.4,19.2C30.4,24.1,23.7,26.7,17.5,29.9C11.3,33.1,5.6,37,-0.3,37.5C-6.2,38,-12.4,35,-19.4,32.3C-26.4,29.5,-34.3,26.9,-39,21.6C-43.8,16.2,-45.5,8.1,-45.3,0.1C-45,-7.8,-42.8,-15.6,-37.4,-19.9C-32,-24.2,-23.4,-24.9,-16.6,-28C-9.9,-31,-4.9,-36.4,0.5,-37.2C5.9,-38,11.7,-34.2,16,-29.7Z" width="100%" height="100%" transform="translate(50 50)" stroke-width="0" style="transition: all 0.3s ease 0s;" stroke="url(#sw-gradient)"></path>
              </svg>