<?xml version="1.0" standalone="no"?>
<svg xmlns:xlink="http://www.w3.org/1999/xlink" id="wave" style="transform:rotate(0deg); transition: 0.3s" viewBox="0 0 1440 470" version="1.1" xmlns="http://www.w3.org/2000/svg"><defs><linearGradient id="sw-gradient-0" x1="0" x2="0" y1="1" y2="0"><stop stop-color="rgba(67, 160, 71, 1)" offset="0%"/><stop stop-color="rgba(0, 121, 107, 1)" offset="100%"/></linearGradient></defs><path style="transform:translate(0, 0px); opacity:1" fill="url(#sw-gradient-0)" d="M0,188L26.7,156.7C53.3,125,107,63,160,31.3C213.3,0,267,0,320,23.5C373.3,47,427,94,480,133.2C533.3,172,587,204,640,188C693.3,172,747,110,800,109.7C853.3,110,907,172,960,203.7C1013.3,235,1067,235,1120,219.3C1173.3,204,1227,172,1280,133.2C1333.3,94,1387,47,1440,78.3C1493.3,110,1547,219,1600,235C1653.3,251,1707,172,1760,133.2C1813.3,94,1867,94,1920,148.8C1973.3,204,2027,313,2080,313.3C2133.3,313,2187,204,2240,188C2293.3,172,2347,251,2400,274.2C2453.3,298,2507,266,2560,282C2613.3,298,2667,360,2720,336.8C2773.3,313,2827,204,2880,195.8C2933.3,188,2987,282,3040,266.3C3093.3,251,3147,125,3200,70.5C3253.3,16,3307,31,3360,78.3C3413.3,125,3467,204,3520,266.3C3573.3,329,3627,376,3680,399.5C3733.3,423,3787,423,3813,423L3840,423L3840,470L3813.3,470C3786.7,470,3733,470,3680,470C3626.7,470,3573,470,3520,470C3466.7,470,3413,470,3360,470C3306.7,470,3253,470,3200,470C3146.7,470,3093,470,3040,470C2986.7,470,2933,470,2880,470C2826.7,470,2773,470,2720,470C2666.7,470,2613,470,2560,470C2506.7,470,2453,470,2400,470C2346.7,470,2293,470,2240,470C2186.7,470,2133,470,2080,470C2026.7,470,1973,470,1920,470C1866.7,470,1813,470,1760,470C1706.7,470,1653,470,1600,470C1546.7,470,1493,470,1440,470C1386.7,470,1333,470,1280,470C1226.7,470,1173,470,1120,470C1066.7,470,1013,470,960,470C906.7,470,853,470,800,470C746.7,470,693,470,640,470C586.7,470,533,470,480,470C426.7,470,373,470,320,470C266.7,470,213,470,160,470C106.7,470,53,470,27,470L0,470Z"/><defs><linearGradient id="sw-gradient-1" x1="0" x2="0" y1="1" y2="0"><stop stop-color="rgba(67, 160, 71, 1)" offset="0%"/><stop stop-color="rgba(0, 121, 107, 1)" offset="100%"/></linearGradient></defs><path style="transform:translate(0, 50px); opacity:0.9" fill="url(#sw-gradient-1)" d="M0,423L26.7,399.5C53.3,376,107,329,160,282C213.3,235,267,188,320,148.8C373.3,110,427,78,480,125.3C533.3,172,587,298,640,305.5C693.3,313,747,204,800,156.7C853.3,110,907,125,960,117.5C1013.3,110,1067,78,1120,78.3C1173.3,78,1227,110,1280,172.3C1333.3,235,1387,329,1440,344.7C1493.3,360,1547,298,1600,274.2C1653.3,251,1707,266,1760,250.7C1813.3,235,1867,188,1920,141C1973.3,94,2027,47,2080,54.8C2133.3,63,2187,125,2240,156.7C2293.3,188,2347,188,2400,219.3C2453.3,251,2507,313,2560,344.7C2613.3,376,2667,376,2720,344.7C2773.3,313,2827,251,2880,188C2933.3,125,2987,63,3040,101.8C3093.3,141,3147,282,3200,297.7C3253.3,313,3307,204,3360,180.2C3413.3,157,3467,219,3520,203.7C3573.3,188,3627,94,3680,47C3733.3,0,3787,0,3813,0L3840,0L3840,470L3813.3,470C3786.7,470,3733,470,3680,470C3626.7,470,3573,470,3520,470C3466.7,470,3413,470,3360,470C3306.7,470,3253,470,3200,470C3146.7,470,3093,470,3040,470C2986.7,470,2933,470,2880,470C2826.7,470,2773,470,2720,470C2666.7,470,2613,470,2560,470C2506.7,470,2453,470,2400,470C2346.7,470,2293,470,2240,470C2186.7,470,2133,470,2080,470C2026.7,470,1973,470,1920,470C1866.7,470,1813,470,1760,470C1706.7,470,1653,470,1600,470C1546.7,470,1493,470,1440,470C1386.7,470,1333,470,1280,470C1226.7,470,1173,470,1120,470C1066.7,470,1013,470,960,470C906.7,470,853,470,800,470C746.7,470,693,470,640,470C586.7,470,533,470,480,470C426.7,470,373,470,320,470C266.7,470,213,470,160,470C106.7,470,53,470,27,470L0,470Z"/><defs><linearGradient id="sw-gradient-2" x1="0" x2="0" y1="1" y2="0"><stop stop-color="rgba(243, 106, 62, 1)" offset="0%"/><stop stop-color="rgba(255, 179, 11, 1)" offset="100%"/></linearGradient></defs><path style="transform:translate(0, 100px); opacity:0.8" fill="url(#sw-gradient-2)" d="M0,188L26.7,211.5C53.3,235,107,282,160,313.3C213.3,345,267,360,320,368.2C373.3,376,427,376,480,352.5C533.3,329,587,282,640,274.2C693.3,266,747,298,800,282C853.3,266,907,204,960,180.2C1013.3,157,1067,172,1120,203.7C1173.3,235,1227,282,1280,282C1333.3,282,1387,235,1440,250.7C1493.3,266,1547,345,1600,383.8C1653.3,423,1707,423,1760,423C1813.3,423,1867,423,1920,368.2C1973.3,313,2027,204,2080,148.8C2133.3,94,2187,94,2240,141C2293.3,188,2347,282,2400,282C2453.3,282,2507,188,2560,125.3C2613.3,63,2667,31,2720,39.2C2773.3,47,2827,94,2880,109.7C2933.3,125,2987,110,3040,117.5C3093.3,125,3147,157,3200,211.5C3253.3,266,3307,345,3360,376C3413.3,407,3467,392,3520,368.2C3573.3,345,3627,313,3680,282C3733.3,251,3787,219,3813,203.7L3840,188L3840,470L3813.3,470C3786.7,470,3733,470,3680,470C3626.7,470,3573,470,3520,470C3466.7,470,3413,470,3360,470C3306.7,470,3253,470,3200,470C3146.7,470,3093,470,3040,470C2986.7,470,2933,470,2880,470C2826.7,470,2773,470,2720,470C2666.7,470,2613,470,2560,470C2506.7,470,2453,470,2400,470C2346.7,470,2293,470,2240,470C2186.7,470,2133,470,2080,470C2026.7,470,1973,470,1920,470C1866.7,470,1813,470,1760,470C1706.7,470,1653,470,1600,470C1546.7,470,1493,470,1440,470C1386.7,470,1333,470,1280,470C1226.7,470,1173,470,1120,470C1066.7,470,1013,470,960,470C906.7,470,853,470,800,470C746.7,470,693,470,640,470C586.7,470,533,470,480,470C426.7,470,373,470,320,470C266.7,470,213,470,160,470C106.7,470,53,470,27,470L0,470Z"/></svg>